<svg width="21" height="21" viewBox="0 0 21 21" fill="none" xmlns="http://www.w3.org/2000/svg">
<g clip-path="url(#clip0_4_698)">
<g clip-path="url(#clip1_4_698)">
<g clip-path="url(#clip2_4_698)">
<path d="M20.3401 0.414062H0.358459V20.3957H20.3401V0.414062Z" fill="#F5F5F5"/>
<path d="M20.3585 0.414062H0.358459V1.95078H20.3585V0.414062Z" fill="#FF4B55"/>
<path d="M20.3585 6.56232H0.358459V8.09904H20.3585V6.56232Z" fill="#FF4B55"/>
<path d="M20.3585 3.48828H0.358459V5.025H20.3585V3.48828Z" fill="#FF4B55"/>
<path d="M20.3585 9.63611H0.358459V11.1728H20.3585V9.63611Z" fill="#FF4B55"/>
<path d="M20.3585 15.7842H0.358459V17.3209H20.3585V15.7842Z" fill="#FF4B55"/>
<path d="M20.3585 18.8584H0.358459V20.3951H20.3585V18.8584Z" fill="#FF4B55"/>
<path d="M20.3585 12.7103H0.358459V14.247H20.3585V12.7103Z" fill="#FF4B55"/>
<path d="M11.1178 0.414062H0.358459V11.1734H11.1178V0.414062Z" fill="#41479B"/>
<path d="M1.73418 1.21793L1.81707 1.46652L2.0791 1.46855C2.113 1.46883 2.12711 1.51211 2.0998 1.53226L1.88902 1.68793L1.96804 1.93777C1.97828 1.97011 1.94148 1.99687 1.91382 1.97715L1.70062 1.82476L1.48742 1.97715C1.45984 1.99691 1.423 1.97011 1.4332 1.93777L1.51222 1.68793L1.30144 1.53226C1.27418 1.51211 1.2882 1.46883 1.32214 1.46855L1.58418 1.46652L1.66707 1.21793C1.67793 1.18574 1.72347 1.18574 1.73418 1.21793Z" fill="#F5F5F5"/>
<path d="M1.73418 3.29169L1.81707 3.54028L2.0791 3.54231C2.113 3.54259 2.12711 3.58587 2.0998 3.60602L1.88902 3.76169L1.96804 4.01153C1.97828 4.04387 1.94148 4.07063 1.91382 4.05091L1.70062 3.89852L1.48742 4.05091C1.45984 4.07067 1.423 4.04387 1.4332 4.01153L1.51222 3.76169L1.30144 3.60602C1.27418 3.58587 1.2882 3.54259 1.32214 3.54231L1.58418 3.54028L1.66707 3.29169C1.67793 3.25946 1.72347 3.25946 1.73418 3.29169Z" fill="#F5F5F5"/>
<path d="M1.73418 5.59158L1.81707 5.84018L2.0791 5.84221C2.113 5.84248 2.12711 5.88576 2.0998 5.90596L1.88902 6.06162L1.96804 6.31147C1.97828 6.34381 1.94148 6.37057 1.91382 6.35084L1.70062 6.19846L1.48742 6.35084C1.45984 6.37061 1.423 6.34381 1.4332 6.31147L1.51222 6.06162L1.30144 5.90596C1.27418 5.8858 1.2882 5.84248 1.32214 5.84221L1.58418 5.84018L1.66707 5.59158C1.67793 5.5594 1.72347 5.5594 1.73418 5.59158Z" fill="#F5F5F5"/>
<path d="M1.73418 7.70474L1.81707 7.95334L2.0791 7.95537C2.113 7.95564 2.12711 7.99892 2.0998 8.01908L1.88902 8.17474L1.96804 8.42459C1.97828 8.45693 1.94148 8.48369 1.91382 8.46396L1.70062 8.31158L1.48742 8.46396C1.45984 8.48373 1.423 8.45693 1.4332 8.42459L1.51222 8.17474L1.30144 8.01908C1.27418 7.99892 1.2882 7.95564 1.32214 7.95537L1.58418 7.95334L1.66707 7.70474C1.67793 7.67256 1.72347 7.67256 1.73418 7.70474Z" fill="#F5F5F5"/>
<path d="M1.73418 9.6276L1.81707 9.87619L2.0791 9.87822C2.113 9.87849 2.12711 9.92177 2.0998 9.94193L1.88902 10.0976L1.96804 10.3474C1.97828 10.3798 1.94148 10.4065 1.91382 10.3868L1.70062 10.2344L1.48742 10.3868C1.45984 10.4066 1.423 10.3798 1.4332 10.3474L1.51222 10.0976L1.30144 9.94193C1.27418 9.92177 1.2882 9.87845 1.32214 9.87822L1.58418 9.87619L1.66707 9.6276C1.67793 9.59541 1.72347 9.59541 1.73418 9.6276Z" fill="#F5F5F5"/>
<path d="M2.74351 2.19992L2.8264 2.44852L3.08844 2.45055C3.12234 2.45082 3.13644 2.4941 3.10914 2.51426L2.89836 2.66992L2.97738 2.91977C2.98762 2.95211 2.95082 2.97887 2.92316 2.95914L2.70996 2.80676L2.49676 2.95914C2.46918 2.97891 2.43234 2.95211 2.44254 2.91977L2.52156 2.66992L2.31078 2.51426C2.28351 2.4941 2.29754 2.45082 2.33148 2.45055L2.59351 2.44852L2.6764 2.19992C2.68726 2.16773 2.73281 2.16773 2.74351 2.19992Z" fill="#F5F5F5"/>
<path d="M2.74351 4.49991L2.8264 4.7485L3.08844 4.75053C3.12234 4.75081 3.13644 4.79409 3.10914 4.81425L2.89836 4.96991L2.97738 5.21975C2.98762 5.2521 2.95082 5.27885 2.92316 5.25913L2.70996 5.10675L2.49676 5.25913C2.46918 5.27889 2.43234 5.2521 2.44254 5.21975L2.52156 4.96991L2.31078 4.81425C2.28351 4.79409 2.29754 4.75081 2.33148 4.75053L2.59351 4.7485L2.6764 4.49991C2.68726 4.46772 2.73281 4.46772 2.74351 4.49991Z" fill="#F5F5F5"/>
<path d="M2.74351 6.685L2.8264 6.93359L3.08844 6.93563C3.12234 6.9359 3.13644 6.97918 3.10914 6.99934L2.89836 7.155L2.97738 7.40484C2.98762 7.43719 2.95082 7.46395 2.92316 7.44422L2.70996 7.29184L2.49676 7.44422C2.46918 7.46398 2.43234 7.43719 2.44254 7.40484L2.52156 7.155L2.31078 6.99934C2.28351 6.97918 2.29754 6.9359 2.33148 6.93563L2.59351 6.93359L2.6764 6.685C2.68726 6.65285 2.73281 6.65285 2.74351 6.685Z" fill="#F5F5F5"/>
<path d="M2.74351 8.64734L2.8264 8.89593L3.08844 8.89796C3.12234 8.89824 3.13644 8.94152 3.10914 8.96167L2.89836 9.11734L2.97738 9.36718C2.98762 9.39953 2.95082 9.42628 2.92316 9.40656L2.70996 9.25417L2.49676 9.40656C2.46918 9.42632 2.43234 9.39953 2.44254 9.36718L2.52156 9.11734L2.31078 8.96167C2.28351 8.94152 2.29754 8.89824 2.33148 8.89796L2.59351 8.89593L2.6764 8.64734C2.68726 8.61511 2.73281 8.61511 2.74351 8.64734Z" fill="#F5F5F5"/>
<path d="M3.75291 1.21793L3.8358 1.46652L4.09784 1.46855C4.13174 1.46883 4.14584 1.51211 4.11854 1.53226L3.90776 1.68793L3.98678 1.93777C3.99701 1.97011 3.96022 1.99687 3.93256 1.97715L3.71936 1.82476L3.50616 1.97715C3.47858 1.99691 3.44174 1.97011 3.45194 1.93777L3.53096 1.68793L3.32018 1.53226C3.29291 1.51211 3.30694 1.46883 3.34088 1.46855L3.60291 1.46652L3.6858 1.21793C3.69666 1.18574 3.74217 1.18574 3.75291 1.21793Z" fill="#F5F5F5"/>
<path d="M3.75291 3.29169L3.8358 3.54028L4.09784 3.54231C4.13174 3.54259 4.14584 3.58587 4.11854 3.60602L3.90776 3.76169L3.98678 4.01153C3.99701 4.04387 3.96022 4.07063 3.93256 4.05091L3.71936 3.89852L3.50616 4.05091C3.47858 4.07067 3.44174 4.04387 3.45194 4.01153L3.53096 3.76169L3.32018 3.60602C3.29291 3.58587 3.30694 3.54259 3.34088 3.54231L3.60291 3.54028L3.6858 3.29169C3.69666 3.25946 3.74217 3.25946 3.75291 3.29169Z" fill="#F5F5F5"/>
<path d="M3.75291 5.59158L3.8358 5.84018L4.09784 5.84221C4.13174 5.84248 4.14584 5.88576 4.11854 5.90596L3.90776 6.06162L3.98678 6.31147C3.99701 6.34381 3.96022 6.37057 3.93256 6.35084L3.71936 6.19846L3.50616 6.35084C3.47858 6.37061 3.44174 6.34381 3.45194 6.31147L3.53096 6.06162L3.32018 5.90596C3.29291 5.8858 3.30694 5.84248 3.34088 5.84221L3.60291 5.84018L3.6858 5.59158C3.69666 5.5594 3.74217 5.5594 3.75291 5.59158Z" fill="#F5F5F5"/>
<path d="M3.7529 7.70475L3.83579 7.95334L4.09782 7.95537C4.13172 7.95565 4.14583 7.99893 4.11852 8.01908L3.90774 8.17475L3.98676 8.42459C3.997 8.45694 3.9602 8.48369 3.93254 8.46397L3.71942 8.31155L3.50622 8.46393C3.47864 8.48369 3.4418 8.4569 3.452 8.42455L3.53102 8.17471L3.32024 8.01905C3.29297 7.99889 3.307 7.95561 3.34094 7.95533L3.60297 7.9533L3.68586 7.70471C3.69665 7.67256 3.74215 7.67256 3.7529 7.70475Z" fill="#F5F5F5"/>
<path d="M3.75291 9.6276L3.8358 9.87619L4.09784 9.87822C4.13174 9.87849 4.14584 9.92177 4.11854 9.94193L3.90776 10.0976L3.98678 10.3474C3.99701 10.3798 3.96022 10.4065 3.93256 10.3868L3.71936 10.2344L3.50616 10.3868C3.47858 10.4066 3.44174 10.3798 3.45194 10.3474L3.53096 10.0976L3.32018 9.94193C3.29291 9.92177 3.30694 9.87845 3.34088 9.87822L3.60291 9.87619L3.6858 9.6276C3.69666 9.59541 3.74217 9.59541 3.75291 9.6276Z" fill="#F5F5F5"/>
<path d="M4.76225 2.19992L4.84514 2.44852L5.10717 2.45055C5.14108 2.45082 5.15518 2.4941 5.12788 2.51426L4.9171 2.66992L4.99612 2.91977C5.00635 2.95211 4.96956 2.97887 4.9419 2.95914L4.7287 2.80676L4.51549 2.95914C4.48792 2.97891 4.45108 2.95211 4.46127 2.91977L4.5403 2.66992L4.32952 2.51426C4.30225 2.4941 4.31628 2.45082 4.35022 2.45055L4.61237 2.44852L4.69526 2.19992C4.706 2.16773 4.75151 2.16773 4.76225 2.19992Z" fill="#F5F5F5"/>
<path d="M4.76225 4.49991L4.84514 4.7485L5.10717 4.75053C5.14108 4.75081 5.15518 4.79409 5.12788 4.81425L4.9171 4.96991L4.99612 5.21975C5.00635 5.2521 4.96956 5.27885 4.9419 5.25913L4.7287 5.10675L4.51549 5.25913C4.48792 5.27889 4.45108 5.2521 4.46127 5.21975L4.5403 4.96991L4.32952 4.81425C4.30225 4.79409 4.31628 4.75081 4.35022 4.75053L4.61225 4.7485L4.69514 4.49991C4.706 4.46772 4.75151 4.46772 4.76225 4.49991Z" fill="#F5F5F5"/>
<path d="M4.76225 6.685L4.84514 6.93359L5.10717 6.93563C5.14108 6.9359 5.15518 6.97918 5.12788 6.99934L4.9171 7.155L4.99612 7.40484C5.00635 7.43719 4.96956 7.46395 4.9419 7.44422L4.7287 7.29184L4.51549 7.44422C4.48792 7.46398 4.45108 7.43719 4.46127 7.40484L4.5403 7.155L4.32952 6.99934C4.30225 6.97918 4.31628 6.9359 4.35022 6.93563L4.61225 6.93359L4.69514 6.685C4.706 6.65285 4.75151 6.65285 4.76225 6.685Z" fill="#F5F5F5"/>
<path d="M4.76225 8.64734L4.84514 8.89593L5.10717 8.89796C5.14108 8.89824 5.15518 8.94152 5.12788 8.96167L4.9171 9.11734L4.99612 9.36718C5.00635 9.39953 4.96956 9.42628 4.9419 9.40656L4.7287 9.25417L4.51549 9.40656C4.48792 9.42632 4.45108 9.39953 4.46127 9.36718L4.5403 9.11734L4.32952 8.96167C4.30225 8.94152 4.31628 8.89824 4.35022 8.89796L4.61225 8.89593L4.69514 8.64734C4.706 8.61511 4.75151 8.61511 4.76225 8.64734Z" fill="#F5F5F5"/>
<path d="M5.77153 1.21793L5.85442 1.46652L6.11645 1.46855C6.15036 1.46883 6.16446 1.51211 6.13715 1.53226L5.92637 1.68793L6.0054 1.93777C6.01563 1.97011 5.97883 1.99687 5.95118 1.97715L5.73797 1.82476L5.52477 1.97715C5.49719 1.99691 5.46036 1.97011 5.47055 1.93777L5.54958 1.68793L5.33879 1.53226C5.31153 1.51211 5.32555 1.46883 5.3595 1.46855L5.62153 1.46652L5.70442 1.21793C5.71528 1.18574 5.76079 1.18574 5.77153 1.21793Z" fill="#F5F5F5"/>
<path d="M5.77153 3.29169L5.85442 3.54028L6.11645 3.54231C6.15036 3.54259 6.16446 3.58587 6.13715 3.60602L5.92637 3.76169L6.0054 4.01153C6.01563 4.04387 5.97883 4.07063 5.95118 4.05091L5.73797 3.89852L5.52477 4.05091C5.49719 4.07067 5.46036 4.04387 5.47055 4.01153L5.54958 3.76169L5.33879 3.60602C5.31153 3.58587 5.32555 3.54259 5.3595 3.54231L5.62153 3.54028L5.70442 3.29169C5.71528 3.25946 5.76079 3.25946 5.77153 3.29169Z" fill="#F5F5F5"/>
<path d="M5.77153 5.59158L5.85442 5.84018L6.11645 5.84221C6.15036 5.84248 6.16446 5.88576 6.13715 5.90596L5.92637 6.06162L6.0054 6.31147C6.01563 6.34381 5.97883 6.37057 5.95118 6.35084L5.73797 6.19846L5.52477 6.35084C5.49719 6.37061 5.46036 6.34381 5.47055 6.31147L5.54958 6.06162L5.33879 5.90596C5.31153 5.8858 5.32555 5.84248 5.3595 5.84221L5.62153 5.84018L5.70442 5.59158C5.71528 5.5594 5.76079 5.5594 5.77153 5.59158Z" fill="#F5F5F5"/>
<path d="M5.77153 7.70474L5.85442 7.95334L6.11645 7.95537C6.15036 7.95564 6.16446 7.99892 6.13715 8.01908L5.92637 8.17474L6.0054 8.42459C6.01563 8.45693 5.97883 8.48369 5.95118 8.46396L5.73797 8.31158L5.52477 8.46396C5.49719 8.48373 5.46036 8.45693 5.47055 8.42459L5.54958 8.17474L5.33879 8.01908C5.31153 7.99892 5.32555 7.95564 5.3595 7.95537L5.62153 7.95334L5.70442 7.70474C5.71528 7.67256 5.76079 7.67256 5.77153 7.70474Z" fill="#F5F5F5"/>
<path d="M5.77153 9.6276L5.85442 9.87619L6.11645 9.87822C6.15036 9.87849 6.16446 9.92177 6.13715 9.94193L5.92637 10.0976L6.0054 10.3474C6.01563 10.3798 5.97883 10.4065 5.95118 10.3868L5.73797 10.2344L5.52477 10.3868C5.49719 10.4066 5.46036 10.3798 5.47055 10.3474L5.54958 10.0976L5.33879 9.94193C5.31153 9.92177 5.32555 9.87845 5.3595 9.87822L5.62153 9.87619L5.70442 9.6276C5.71528 9.59541 5.76079 9.59541 5.77153 9.6276Z" fill="#F5F5F5"/>
<path d="M6.78087 2.19992L6.86376 2.44852L7.12579 2.45055C7.1597 2.45082 7.1738 2.4941 7.14649 2.51426L6.93571 2.66992L7.01474 2.91977C7.02497 2.95211 6.98817 2.97887 6.96052 2.95914L6.74731 2.80676L6.53411 2.95914C6.50653 2.97891 6.4697 2.95211 6.47989 2.91977L6.55892 2.66992L6.34813 2.51426C6.32087 2.4941 6.33489 2.45082 6.3688 2.45055L6.63083 2.44852L6.71372 2.19992C6.72462 2.16773 6.77013 2.16773 6.78087 2.19992Z" fill="#F5F5F5"/>
<path d="M6.78087 4.49991L6.86376 4.7485L7.12579 4.75053C7.1597 4.75081 7.1738 4.79409 7.14649 4.81425L6.93571 4.96991L7.01474 5.21975C7.02497 5.2521 6.98817 5.27885 6.96052 5.25913L6.74731 5.10675L6.53411 5.25913C6.50653 5.27889 6.4697 5.2521 6.47989 5.21975L6.55892 4.96991L6.34813 4.81425C6.32087 4.79409 6.33489 4.75081 6.3688 4.75053L6.63083 4.7485L6.71372 4.49991C6.72462 4.46772 6.77013 4.46772 6.78087 4.49991Z" fill="#F5F5F5"/>
<path d="M6.78087 6.685L6.86376 6.93359L7.12579 6.93563C7.1597 6.9359 7.1738 6.97918 7.14649 6.99934L6.93571 7.155L7.01474 7.40484C7.02497 7.43719 6.98817 7.46395 6.96052 7.44422L6.74731 7.29184L6.53411 7.44422C6.50653 7.46398 6.4697 7.43719 6.47989 7.40484L6.55892 7.155L6.34813 6.99934C6.32087 6.97918 6.33489 6.9359 6.3688 6.93563L6.63083 6.93359L6.71372 6.685C6.72462 6.65285 6.77013 6.65285 6.78087 6.685Z" fill="#F5F5F5"/>
<path d="M6.78087 8.64734L6.86376 8.89593L7.12579 8.89796C7.1597 8.89824 7.1738 8.94152 7.14649 8.96167L6.93571 9.11734L7.01474 9.36718C7.02497 9.39953 6.98817 9.42628 6.96052 9.40656L6.74731 9.25417L6.53411 9.40656C6.50653 9.42632 6.4697 9.39953 6.47989 9.36718L6.55892 9.11734L6.34813 8.96167C6.32087 8.94152 6.33489 8.89824 6.3688 8.89796L6.63083 8.89593L6.71372 8.64734C6.72462 8.61511 6.77013 8.61511 6.78087 8.64734Z" fill="#F5F5F5"/>
<path d="M7.79021 1.21793L7.8731 1.46652L8.13513 1.46855C8.16903 1.46883 8.18314 1.51211 8.15583 1.53226L7.94505 1.68793L8.02407 1.93777C8.03431 1.97011 7.99751 1.99687 7.96985 1.97715L7.75665 1.82476L7.54345 1.97715C7.51587 1.99691 7.47903 1.97011 7.48923 1.93777L7.56825 1.68793L7.35747 1.53226C7.33021 1.51211 7.34423 1.46883 7.37817 1.46855L7.64021 1.46652L7.7231 1.21793C7.73396 1.18574 7.77946 1.18574 7.79021 1.21793Z" fill="#F5F5F5"/>
<path d="M7.79021 3.29169L7.8731 3.54028L8.13513 3.54231C8.16903 3.54259 8.18314 3.58587 8.15583 3.60602L7.94505 3.76169L8.02407 4.01153C8.03431 4.04387 7.99751 4.07063 7.96985 4.05091L7.75665 3.89852L7.54345 4.05091C7.51587 4.07067 7.47903 4.04387 7.48923 4.01153L7.56825 3.76169L7.35747 3.60602C7.33021 3.58587 7.34423 3.54259 7.37817 3.54231L7.64021 3.54028L7.7231 3.29169C7.73396 3.25946 7.77946 3.25946 7.79021 3.29169Z" fill="#F5F5F5"/>
<path d="M7.79021 5.59158L7.8731 5.84018L8.13513 5.84221C8.16903 5.84248 8.18314 5.88576 8.15583 5.90596L7.94505 6.06162L8.02407 6.31147C8.03431 6.34381 7.99751 6.37057 7.96985 6.35084L7.75665 6.19846L7.54345 6.35084C7.51587 6.37061 7.47903 6.34381 7.48923 6.31147L7.56825 6.06162L7.35747 5.90596C7.33021 5.8858 7.34423 5.84248 7.37817 5.84221L7.64021 5.84018L7.7231 5.59158C7.73396 5.5594 7.77946 5.5594 7.79021 5.59158Z" fill="#F5F5F5"/>
<path d="M7.79021 7.70474L7.8731 7.95334L8.13513 7.95537C8.16903 7.95564 8.18314 7.99892 8.15583 8.01908L7.94505 8.17474L8.02407 8.42459C8.03431 8.45693 7.99751 8.48369 7.96985 8.46396L7.75665 8.31158L7.54345 8.46396C7.51587 8.48373 7.47903 8.45693 7.48923 8.42459L7.56825 8.17474L7.35747 8.01908C7.33021 7.99892 7.34423 7.95564 7.37817 7.95537L7.64021 7.95334L7.7231 7.70474C7.73396 7.67256 7.77946 7.67256 7.79021 7.70474Z" fill="#F5F5F5"/>
<path d="M7.79021 9.6276L7.8731 9.87619L8.13513 9.87822C8.16903 9.87849 8.18314 9.92177 8.15583 9.94193L7.94505 10.0976L8.02407 10.3474C8.03431 10.3798 7.99751 10.4065 7.96985 10.3868L7.75665 10.2344L7.54345 10.3868C7.51587 10.4066 7.47903 10.3798 7.48923 10.3474L7.56825 10.0976L7.35747 9.94193C7.33021 9.92177 7.34423 9.87845 7.37817 9.87822L7.64021 9.87619L7.7231 9.6276C7.73396 9.59541 7.77946 9.59541 7.79021 9.6276Z" fill="#F5F5F5"/>
<path d="M8.7996 2.19992L8.8825 2.44852L9.14453 2.45055C9.17843 2.45082 9.19253 2.4941 9.16523 2.51426L8.95445 2.66992L9.03347 2.91977C9.04371 2.95211 9.00691 2.97887 8.97925 2.95914L8.76605 2.80676L8.55285 2.95914C8.52527 2.97891 8.48843 2.95211 8.49863 2.91977L8.57765 2.66992L8.36687 2.51426C8.33961 2.4941 8.35363 2.45082 8.38757 2.45055L8.6496 2.44852L8.7325 2.19992C8.74332 2.16773 8.78886 2.16773 8.7996 2.19992Z" fill="#F5F5F5"/>
<path d="M8.7996 4.49991L8.8825 4.7485L9.14453 4.75053C9.17843 4.75081 9.19253 4.79409 9.16523 4.81425L8.95445 4.96991L9.03347 5.21975C9.04371 5.2521 9.00691 5.27885 8.97925 5.25913L8.76605 5.10675L8.55285 5.25913C8.52527 5.27889 8.48843 5.2521 8.49863 5.21975L8.57765 4.96991L8.36687 4.81425C8.33961 4.79409 8.35363 4.75081 8.38757 4.75053L8.6496 4.7485L8.7325 4.49991C8.74332 4.46772 8.78886 4.46772 8.7996 4.49991Z" fill="#F5F5F5"/>
<path d="M8.7996 6.685L8.8825 6.93359L9.14453 6.93563C9.17843 6.9359 9.19253 6.97918 9.16523 6.99934L8.95445 7.155L9.03347 7.40484C9.04371 7.43719 9.00691 7.46395 8.97925 7.44422L8.76605 7.29184L8.55285 7.44422C8.52527 7.46398 8.48843 7.43719 8.49863 7.40484L8.57765 7.155L8.36687 6.99934C8.33961 6.97918 8.35363 6.9359 8.38757 6.93563L8.6496 6.93359L8.7325 6.685C8.74332 6.65285 8.78886 6.65285 8.7996 6.685Z" fill="#F5F5F5"/>
<path d="M8.7996 8.64734L8.8825 8.89593L9.14453 8.89796C9.17843 8.89824 9.19253 8.94152 9.16523 8.96167L8.95445 9.11734L9.03347 9.36718C9.04371 9.39953 9.00691 9.42628 8.97925 9.40656L8.76605 9.25417L8.55285 9.40656C8.52527 9.42632 8.48843 9.39953 8.49863 9.36718L8.57765 9.11734L8.36687 8.96167C8.33961 8.94152 8.35363 8.89824 8.38757 8.89796L8.6496 8.89593L8.7325 8.64734C8.74332 8.61511 8.78886 8.61511 8.7996 8.64734Z" fill="#F5F5F5"/>
<path d="M9.80894 1.21793L9.89183 1.46652L10.1539 1.46855C10.1878 1.46883 10.2019 1.51211 10.1746 1.53226L9.96379 1.68793L10.0428 1.93777C10.053 1.97011 10.0162 1.99687 9.98859 1.97715L9.77539 1.82476L9.56219 1.97715C9.53461 1.99691 9.49777 1.97011 9.50797 1.93777L9.58699 1.68793L9.37621 1.53226C9.34894 1.51211 9.36297 1.46883 9.39691 1.46855L9.65894 1.46652L9.74183 1.21793C9.75265 1.18574 9.7982 1.18574 9.80894 1.21793Z" fill="#F5F5F5"/>
<path d="M9.80894 3.29169L9.89183 3.54028L10.1539 3.54231C10.1878 3.54259 10.2019 3.58587 10.1746 3.60602L9.96379 3.76169L10.0428 4.01153C10.053 4.04387 10.0162 4.07063 9.98859 4.05091L9.77539 3.89852L9.56219 4.05091C9.53461 4.07067 9.49777 4.04387 9.50797 4.01153L9.58699 3.76169L9.37621 3.60602C9.34894 3.58587 9.36297 3.54259 9.39691 3.54231L9.65894 3.54028L9.74183 3.29169C9.75265 3.25946 9.7982 3.25946 9.80894 3.29169Z" fill="#F5F5F5"/>
<path d="M9.80894 5.59158L9.89183 5.84018L10.1539 5.84221C10.1878 5.84248 10.2019 5.88576 10.1746 5.90596L9.96379 6.06162L10.0428 6.31147C10.053 6.34381 10.0162 6.37057 9.98859 6.35084L9.77539 6.19846L9.56219 6.35084C9.53461 6.37061 9.49777 6.34381 9.50797 6.31147L9.58699 6.06162L9.37621 5.90596C9.34894 5.8858 9.36297 5.84248 9.39691 5.84221L9.65894 5.84018L9.74183 5.59158C9.75265 5.5594 9.7982 5.5594 9.80894 5.59158Z" fill="#F5F5F5"/>
<path d="M9.80894 7.70474L9.89183 7.95334L10.1539 7.95537C10.1878 7.95564 10.2019 7.99892 10.1746 8.01908L9.96379 8.17474L10.0428 8.42459C10.053 8.45693 10.0162 8.48369 9.98859 8.46396L9.77539 8.31158L9.56219 8.46396C9.53461 8.48373 9.49777 8.45693 9.50797 8.42459L9.58699 8.17474L9.37621 8.01908C9.34894 7.99892 9.36297 7.95564 9.39691 7.95537L9.65894 7.95334L9.74183 7.70474C9.75265 7.67256 9.7982 7.67256 9.80894 7.70474Z" fill="#F5F5F5"/>
<path d="M9.80894 9.6276L9.89183 9.87619L10.1539 9.87822C10.1878 9.87849 10.2019 9.92177 10.1746 9.94193L9.96379 10.0976L10.0428 10.3474C10.053 10.3798 10.0162 10.4065 9.98859 10.3868L9.77539 10.2344L9.56219 10.3868C9.53461 10.4066 9.49777 10.3798 9.50797 10.3474L9.58699 10.0976L9.37621 9.94193C9.34894 9.92177 9.36297 9.87845 9.39691 9.87822L9.65894 9.87619L9.74183 9.6276C9.75265 9.59541 9.7982 9.59541 9.80894 9.6276Z" fill="#F5F5F5"/>
</g>
</g>
</g>
<defs>
<clipPath id="clip0_4_698">
<rect x="0.358459" y="0.404907" width="20" height="20" rx="4" fill="white"/>
</clipPath>
<clipPath id="clip1_4_698">
<rect width="20" height="20" fill="white" transform="translate(0.358459 0.404907)"/>
</clipPath>
<clipPath id="clip2_4_698">
<rect width="20" height="20" fill="white" transform="translate(0.358459 0.404907)"/>
</clipPath>
</defs>
</svg>
